<svg width="18.000000" height="18.000000" viewBox="0 0 18 18" fill="none" xmlns="http://www.w3.org/2000/svg" xmlns:xlink="http://www.w3.org/1999/xlink">
	<desc>
			Created with Pixso.
	</desc>
	<defs>
		<clipPath id="clip2_2690">
			<rect id="Icons/location" width="18.000000" height="18.000000" fill="white" fill-opacity="0"/>
		</clipPath>
	</defs>
	<rect id="cons/location" width="18.000000" height="18.000000" fill="#FFFFFF" fill-opacity="0"/>
	<rect id="cons/location" width="18.000000" height="18.000000" fill="#FFFFFF" fill-opacity="0"/>
	<rect id="Icons/location" width="18.000000" height="18.000000" fill="#FFFFFF" fill-opacity="0"/>
	<g clip-path="url(#clip2_2690)">
		<path id="Vector" d="M1.5 3.75L6.75 1.5L11.25 3.75L15.97 1.72C16.03 1.69 16.09 1.68 16.15 1.69C16.22 1.7 16.27 1.72 16.33 1.75C16.38 1.79 16.42 1.83 16.45 1.89C16.48 1.94 16.5 2 16.5 2.06L16.5 14.25L11.25 16.5L6.75 14.25L2.02 16.27C1.96 16.3 1.9 16.31 1.84 16.3C1.77 16.29 1.72 16.27 1.66 16.24C1.61 16.2 1.57 16.16 1.54 16.1C1.51 16.05 1.5 15.99 1.5 15.93L1.5 3.75ZM11.25 14.82L11.25 5.38L11.2 5.4L6.75 3.17L6.75 12.61L6.79 12.59L11.25 14.82Z" fill="#2B2B2B" fill-opacity="1.000000" fill-rule="nonzero"/>
	</g>
</svg>
