<svg width="18.000000" height="18.000000" viewBox="0 0 18 18" fill="none" xmlns="http://www.w3.org/2000/svg" xmlns:xlink="http://www.w3.org/1999/xlink">
	<desc>
			Created with Pixso.
	</desc>
	<defs>
		<clipPath id="clip2_2700">
			<rect id="Icons/Mobile" width="18.000000" height="18.000000" fill="white" fill-opacity="0"/>
		</clipPath>
	</defs>
	<rect id="Icons/Mobile" width="18.000000" height="18.000000" fill="#FFFFFF" fill-opacity="0"/>
	<rect id="Icons/Mobile" width="18.000000" height="18.000000" fill="#FFFFFF" fill-opacity="0"/>
	<rect id="Icons/Mobile" width="18.000000" height="18.000000" fill="#FFFFFF" fill-opacity="0"/>
	<g clip-path="url(#clip2_2700)">
		<path id="Vector" d="M4.5 1.5L13.5 1.5C13.69 1.5 13.88 1.57 14.03 1.71C14.17 1.86 14.25 2.05 14.25 2.25L14.25 15.75C14.25 15.94 14.17 16.13 14.03 16.28C13.88 16.42 13.69 16.5 13.5 16.5L4.5 16.5C4.3 16.5 4.11 16.42 3.96 16.28C3.82 16.13 3.75 15.94 3.75 15.75L3.75 2.25C3.75 2.05 3.82 1.86 3.96 1.71C4.11 1.57 4.3 1.5 4.5 1.5ZM9 12.75C8.8 12.75 8.61 12.82 8.46 12.96C8.32 13.11 8.25 13.3 8.25 13.5C8.25 13.69 8.32 13.88 8.46 14.03C8.61 14.17 8.8 14.25 9 14.25C9.19 14.25 9.38 14.17 9.53 14.03C9.67 13.88 9.75 13.69 9.75 13.5C9.75 13.3 9.67 13.11 9.53 12.96C9.38 12.82 9.19 12.75 9 12.75Z" fill="#2B2B2B" fill-opacity="1.000000" fill-rule="nonzero"/>
	</g>
</svg>
