<svg width="65.875000" height="53.125000" viewBox="0 0 65.875 53.125" fill="none" xmlns="http://www.w3.org/2000/svg" xmlns:xlink="http://www.w3.org/1999/xlink">
	<desc>
			Created with Pixso.
	</desc>
	<defs/>
	<path id="Vector" d="M62.15 0L3.71 0C2.73 0 1.78 0.39 1.09 1.09C0.39 1.78 0 2.73 0 3.71L0 40.9C0 41.89 0.39 42.83 1.09 43.53C1.78 44.23 2.73 44.62 3.71 44.62L24.99 44.62L23.71 47.81L18.06 47.81C17.78 47.81 17.51 47.92 17.31 48.12C17.11 48.32 17 48.59 17 48.87L17 51L10.62 51C10.34 51 10.07 51.11 9.87 51.31C9.67 51.51 9.56 51.78 9.56 52.06C9.56 52.34 9.67 52.61 9.87 52.81C10.07 53.01 10.34 53.12 10.62 53.12L55.25 53.12C55.53 53.12 55.8 53.01 56 52.81C56.2 52.61 56.31 52.34 56.31 52.06C56.31 51.78 56.2 51.51 56 51.31C55.8 51.11 55.53 51 55.25 51L48.87 51L48.87 48.87C48.87 48.59 48.76 48.32 48.56 48.12C48.36 47.92 48.09 47.81 47.81 47.81L42.15 47.81L40.88 44.62L62.15 44.62C63.14 44.62 64.08 44.23 64.78 43.53C65.48 42.83 65.87 41.89 65.87 40.9L65.87 3.71C65.87 2.73 65.48 1.78 64.78 1.09C64.08 0.39 63.14 0 62.15 0ZM46.75 49.93L46.75 51L19.12 51L19.12 49.93L46.75 49.93ZM26 47.81L27.28 44.62L38.59 44.62L39.86 47.81L26 47.81ZM63.75 40.9C63.74 41.32 63.58 41.73 63.28 42.03C62.98 42.33 62.57 42.49 62.15 42.5L3.71 42.5C3.29 42.49 2.89 42.33 2.59 42.03C2.29 41.73 2.12 41.32 2.12 40.9L2.12 38.25L63.75 38.25L63.75 40.9ZM63.75 36.12L2.12 36.12L2.12 3.71C2.12 3.29 2.29 2.89 2.59 2.59C2.89 2.29 3.29 2.12 3.71 2.12L62.15 2.12C62.57 2.12 62.98 2.29 63.28 2.59C63.58 2.89 63.74 3.29 63.75 3.71L63.75 36.12Z" fill="#FFB400" fill-opacity="1.000000" fill-rule="nonzero"/>
</svg>
